<?xml version="1.0" encoding="utf-8"?>
<!-- Generator: Adobe Illustrator 25.0.0, SVG Export Plug-In . SVG Version: 6.00 Build 0)  -->
<svg version="1.1" xmlns="http://www.w3.org/2000/svg" xmlns:xlink="http://www.w3.org/1999/xlink" x="0px" y="0px"
	 viewBox="0 0 971.1 628.4" style="enable-background:new 0 0 971.1 628.4;" xml:space="preserve">
<style type="text/css">
	.st0{fill:#CACACA;}
	.st1{fill:#F2F2F2;}
	.st2{fill:#E6E6E6;}
	.st3{fill:#2F2E41;}
	.st4{fill:#FFB8B8;}
	.st5{fill:#0D6EFD;}
	.st6{fill:#3F3D56;}
	.st7{fill:none;stroke:#333333;stroke-width:1.7624;stroke-linecap:round;stroke-linejoin:round;stroke-miterlimit:10;}
	.st8{fill:#333333;stroke:#333333;stroke-width:0.5875;stroke-miterlimit:10;}
	.st9{fill:#FFFFFF;}
	.st10{fill:url(#SVGID_1_);}
	.st11{fill:none;}
	.st12{font-family:'ArialMT';}
	.st13{font-size:129.0101px;}
</style>
<g id="Layer_1">
	<g id="ab47acfe-844d-4101-aa7b-df38aa50dbe4">
		<path class="st0" d="M733.5,500.4L733.5,500.4c-2.7-17.9-3.4-36.1-2.1-54.1l2.1-29.9l0,0C721.9,439.4,724.5,469.6,733.5,500.4
			L733.5,500.4z"/>
		<path class="st0" d="M742.5,505.4L742.5,505.4c-1.3-10.7-1.6-21.5-1-32.2l1-17.8l0,0C736.9,469.1,738.2,487.1,742.5,505.4z"/>
		<path class="st1" d="M782.5,527.4v10c0,1.7-1.3,3-3,3h-5c-0.6,0-1,0.4-1,1l0,0v82c0,1.7-1.3,3-3,3h-61c-1.7,0-3-1.3-3-3v-82
			c0-0.6-0.4-1-1-1h-6c-1.7,0-3-1.3-3-3v-10c0-1.7,1.3-3,3-3l0,0h80C781.1,524.4,782.5,525.8,782.5,527.4z"/>
		<rect x="706.6" y="542.5" class="st2" width="67" height="3"/>
		<path class="st2" d="M773.5,586.7c-22.4,9.3-45.1,9.4-68,0v-21.1c22.1-7.4,45.9-7.4,68,0V586.7z"/>
		<circle class="st3" cx="451.5" cy="214" r="36.4"/>
		<path class="st3" d="M461.6,178.6c20.1,0,36.4,16.3,36.4,36.4c0,6-1.5,12-4.4,17.3c12.5-15.7,10-38.6-5.7-51.1s-38.6-10-51.1,5.7
			c-1.4,1.7-2.6,3.5-3.6,5.5C440.1,183.6,450.6,178.6,461.6,178.6z"/>
		<circle class="st3" cx="383.5" cy="107" r="106.9"/>
		<path class="st3" d="M299.6,40.7c38.3-43.1,103.8-48,148.2-11.2c-0.9-0.8-1.7-1.7-2.6-2.5C401-12.2,333.5-8.2,294.3,36
			C255,80.1,258.9,147.6,303,186.8c0.9,0.8,1.8,1.6,2.8,2.3C264,149.4,261.3,83.7,299.6,40.7z"/>
		<circle class="st4" cx="382.6" cy="144.1" r="68.9"/>
		<path class="st0" d="M417.7,231.7L344,235c0,0,6.2,38.1-33.7,41.7s-76.1-7.2-90.6,19.9s-8.2,124-8.2,124s27.2,97.9,48.9,112.3
			s212-5.4,212-5.4L552.1,427l-2.7-77.5c-1.4-40.5-38.4-70.9-78.2-63.4c-0.8,0.1-1.6,0.3-2.4,0.5c-1.2,0.3-8.7-6.5-32.7-18.5
			C421.4,260.7,417.7,231.7,417.7,231.7z"/>
		<path class="st3" d="M257.8,274.9c0,0,17.5,31.8,10.3,77.1s23.2,141.1,23.2,141.1l21.7-5.4c0,0-14.5-94.2-10.9-116
			s4.6-85.9-13.5-96.8S257.8,274.9,257.8,274.9z"/>
		<path class="st3" d="M467.5,291.6l7.6,200.6l14.5,9.1c0,0,20.8-220.2,10-220.2h-22.1c-5.5,0-10,4.5-10,10l0,0
			C467.5,291.3,467.5,291.4,467.5,291.6z"/>
		<circle class="st5" cx="301.2" cy="479.5" r="9.1"/>
		<circle class="st5" cx="482.4" cy="488.6" r="9.1"/>
		<polygon class="st3" points="323.7,58.1 323.7,126.9 339.6,126.9 359.9,105.2 357.2,126.9 427.7,126.9 423.3,105.2 432,126.9 
			443.3,126.9 443.3,58.1 		"/>
		<ellipse class="st4" cx="312.8" cy="129.6" rx="5.4" ry="10"/>
		<ellipse class="st4" cx="452.3" cy="129.6" rx="5.4" ry="10"/>
		<path class="st6" d="M603.2,608.4v6.1c0,1.7-0.3,3.3-0.9,4.9c-0.3,0.7-0.6,1.4-1,2c-2.4,4.1-6.8,6.6-11.5,6.6H143.2
			c-4.7,0-9.1-2.5-11.6-6.6c-0.4-0.6-0.7-1.3-1-2c-0.6-1.6-0.9-3.2-0.9-4.9v-6.1c0-7.4,6-13.4,13.4-13.4l0,0h25.7v-2.8
			c0-0.3,0.2-0.6,0.6-0.6l0,0h13.4c0.3,0,0.6,0.2,0.6,0.6v2.8h8.4v-2.8c0-0.3,0.2-0.6,0.6-0.6l0,0h13.4c0.3,0,0.6,0.2,0.6,0.6v2.8
			h8.4v-2.8c0-0.3,0.2-0.6,0.6-0.6l0,0h13.4c0.3,0,0.6,0.2,0.6,0.6v2.8h8.4v-2.8c0-0.3,0.2-0.6,0.6-0.6l0,0h13.4
			c0.3,0,0.6,0.2,0.6,0.6v2.8h8.4v-2.8c0-0.3,0.2-0.6,0.6-0.6l0,0h13.4c0.3,0,0.6,0.2,0.6,0.6v2.8h8.4v-2.8c0-0.3,0.2-0.6,0.6-0.6
			l0,0h13.4c0.3,0,0.6,0.2,0.6,0.6v2.8h8.4v-2.8c0-0.3,0.2-0.6,0.6-0.6l0,0h105.2c0.3,0,0.6,0.2,0.6,0.6l0,0v2.8h8.4v-2.8
			c0-0.3,0.2-0.6,0.6-0.6l0,0h13.4c0.3,0,0.6,0.3,0.6,0.6v2.8h8.4v-2.8c0-0.3,0.2-0.6,0.6-0.6l0,0h13.4c0.3,0,0.6,0.2,0.6,0.6l0,0
			v2.8h8.4v-2.8c0-0.3,0.2-0.6,0.6-0.6l0,0h13.4c0.3,0,0.6,0.2,0.6,0.6l0,0v2.8h8.4v-2.8c0-0.3,0.2-0.6,0.6-0.6l0,0h13.4
			c0.3,0,0.6,0.3,0.5,0.6v2.8h8.4v-2.8c0-0.3,0.2-0.6,0.6-0.6l0,0h13.4c0.3,0,0.6,0.2,0.6,0.6l0,0v2.8h8.4v-2.8
			c0-0.3,0.2-0.6,0.6-0.6l0,0H550c0.3,0,0.6,0.2,0.6,0.6l0,0v2.8h39.2C597.1,595,603.1,601,603.2,608.4L603.2,608.4z"/>
		<rect y="626.4" class="st6" width="971.1" height="2"/>
		<path class="st6" d="M567.2,352.8h-409c-6.2,0-11.3,5-11.3,11.3l0,0V592c0,6.2,5,11.3,11.3,11.3h409c6.2,0,11.3-5,11.3-11.3V364.1
			C578.5,357.9,573.4,352.8,567.2,352.8L567.2,352.8z"/>
		<circle class="st5" cx="363" cy="432.4" r="25"/>
		<polygon class="st6" points="517.8,267.2 644,140 703.6,140 703.6,138 643.1,138 642.8,138.3 516.3,265.8 		"/>
		<rect x="776.3" y="87.8" class="st5" width="146.2" height="13"/>
		<path class="st6" d="M758.5,109.1h-31v-31h31V109.1z M729.6,107.1h27v-27h-27V107.1z"/>
		<rect x="776.3" y="131.2" class="st5" width="146.2" height="13"/>
		<path class="st6" d="M758.5,152.5h-31v-31h31V152.5z M729.6,150.5h27v-27h-27V150.5z"/>
		<rect x="776.3" y="174.7" class="st5" width="146.2" height="13"/>
		<path class="st6" d="M758.5,195.9h-31v-31h31V195.9z M729.6,193.9h27v-27h-27V193.9z"/>
	</g>
	<g id="Layer_2_1_">
		<g>
			<path class="st7" d="M374.2,142.2l1.7-0.2v-3.5c0,0,0.9-2,5.9-2.1s6.5,2.1,6.5,2.1v3.6h1.8"/>
			<path class="st8" d="M347,129.4c0,0,34.7-2.7,26.7,21.3s-26.4,29.6-32.7,29.6c-9.6,0-21.2-3.7-22.6-26.5
				C316.8,128.8,347,129.4,347,129.4z"/>
			<path class="st8" d="M405.4,128.6h-47c-0.5,0-1,0.4-1,1l0,0c0,0.5,0.4,1,1,1h47c0.5,0,1-0.4,1-1l0,0
				C406.4,129.1,405.9,128.6,405.4,128.6z"/>
			<path class="st8" d="M418.1,129.4c0,0-34.7-2.7-26.7,21.3s26.4,29.6,32.7,29.6c9.6,0,21.2-3.7,22.6-26.5
				C448.4,128.8,418.1,129.4,418.1,129.4z"/>
			<g>
				<path class="st9" d="M352.8,172.3c2.1-1.8,4.1-3.7,5.9-5.7c1.7-2.1,3.3-4.3,4.8-6.6c1.5-2.2,2.6-4.6,3.4-7.2
					c0.8-2.6,1.4-5.3,2.1-8c0.1,2.8,0,5.6-0.6,8.4c-0.6,2.8-1.7,5.5-3.2,7.9c-1.6,2.3-3.2,4.6-5.3,6.5
					C357.8,169.6,355.4,171.2,352.8,172.3z"/>
			</g>
			<g>
				<path class="st9" d="M425.8,172.3c2.1-1.8,4.1-3.7,5.9-5.7c1.7-2.1,3.3-4.3,4.8-6.6c1.5-2.2,2.6-4.6,3.4-7.2
					c0.8-2.6,1.4-5.3,2.1-8c0.1,2.8,0,5.6-0.6,8.4c-0.6,2.8-1.7,5.5-3.2,7.9c-1.6,2.3-3.2,4.6-5.3,6.5
					C430.8,169.6,428.4,171.2,425.8,172.3z"/>
			</g>
		</g>
	</g>
	<linearGradient id="SVGID_1_" gradientUnits="userSpaceOnUse" x1="277.6035" y1="423.6024" x2="444.9821" y2="551.4607">
		<stop  offset="1.208281e-02" style="stop-color:#8F12FE"/>
		<stop  offset="0.5749" style="stop-color:#6B11F3"/>
	</linearGradient>
	<path class="st10" d="M443.8,423.1c-0.4-9.9-9.1-18.9-17.7-18.9c-15.3,0-54.1,0-63.4,0c0,0-0.7,0-2,0c-9.3,0-48,0-63.4,0
		c-8.6,0-17.3,9-17.7,18.9c1.1,62.9-23.3,59.8-23.3,59.8v2.6v1.6v5.7c0,0,24.4-3.1,23.3,59.8c0.4,9.9,9.1,18.9,17.7,18.9
		c15.3,0,54.1,0,63.4,0c1.3,0,2,0,2,0c9.3,0,48,0,63.4,0c8.6,0,17.3-9,17.7-18.9c-1.1-62.9,23.3-59.8,23.3-59.8v-5.7v-1.6v-2.6
		C467,482.9,442.7,486,443.8,423.1z"/>
	<rect x="322.4" y="444.1" class="st11" width="205.6" height="185.5"/>
	<text transform="matrix(1 0 0 1 322.3827 536.5044)" class="st9 st12 st13">B</text>
</g>
<g id="Layer_2">
</g>
</svg>
